<svg xmlns="http://www.w3.org/2000/svg" width="512" height="512" id="home-theater"><path d="M412 416h-4v-4a28.028 28.028 0 0 0-26.9-27.97 32 32 0 1 0-42.2 0A28.028 28.028 0 0 0 312 412v4h-8v-4a28.028 28.028 0 0 0-26.9-27.97 32 32 0 1 0-42.2 0A28.028 28.028 0 0 0 208 412v4h-8v-4a28.028 28.028 0 0 0-26.9-27.97 32 32 0 1 0-42.2 0A28.028 28.028 0 0 0 104 412v4h-4a28.031 28.031 0 0 0-28 28v44a8 8 0 0 0 8 8h352a8 8 0 0 0 8-8v-44a28.031 28.031 0 0 0-28-28zm-52-72a16 16 0 1 1-16 16 16.021 16.021 0 0 1 16-16zm-32 68a12.01 12.01 0 0 1 12-12h40a12.01 12.01 0 0 1 12 12v4h-64zm-72-68a16 16 0 1 1-16 16 16.021 16.021 0 0 1 16-16zm-32 68a12.01 12.01 0 0 1 12-12h40a12.01 12.01 0 0 1 12 12v4h-64zm-72-68a16 16 0 1 1-16 16 16.021 16.021 0 0 1 16-16zm-32 68a12.01 12.01 0 0 1 12-12h40a12.01 12.01 0 0 1 12 12v4h-64zm304 68H88v-36a12.01 12.01 0 0 1 12-12h312a12.01 12.01 0 0 1 12 12zM88.758 311.964a1768.4 1768.4 0 0 1 334.484 0q.379.036.758.036a8 8 0 0 0 8-8V96a8 8 0 0 0-8.758-7.964 1768.4 1768.4 0 0 1-334.484 0A8 8 0 0 0 80 96v208a8 8 0 0 0 8.758 7.964zM96 104.776a1785.082 1785.082 0 0 0 320 0v190.448c-53.109-4.79-106.555-7.186-160-7.186s-106.891 2.4-160 7.186z"></path><path d="M304 200a8 8 0 0 0-4.422-7.155l-64-32A8 8 0 0 0 224 168v64a8 8 0 0 0 11.578 7.155l64-32A8 8 0 0 0 304 200zm-64 19.056v-38.112L278.111 200zM56 272a16.019 16.019 0 0 0 16-16v-80a16.019 16.019 0 0 0-16-16H24a16.019 16.019 0 0 0-16 16v80a16.019 16.019 0 0 0 16 16h8v32h-8a8 8 0 0 0 0 16h32a8 8 0 0 0 0-16h-8v-32zm-32-96h32l.01 80H24z"></path><circle cx="40" cy="192" r="8"></circle><circle cx="40" cy="216" r="8"></circle><circle cx="40" cy="240" r="8"></circle><path d="M488 160h-32a16.019 16.019 0 0 0-16 16v80a16.019 16.019 0 0 0 16 16h8v32h-8a8 8 0 0 0 0 16h32a8 8 0 0 0 0-16h-8v-32h8a16.019 16.019 0 0 0 16-16v-80a16.019 16.019 0 0 0-16-16Zm0 96h-32v-80h32l.01 80Z"></path><circle cx="472" cy="216" r="8"></circle><circle cx="472" cy="192" r="8"></circle><circle cx="472" cy="240" r="8"></circle><path d="M216 80h80a16.019 16.019 0 0 0 16-16V32a16.019 16.019 0 0 0-16-16h-80a16.019 16.019 0 0 0-16 16v32a16.019 16.019 0 0 0 16 16Zm0-48 80-.01V64h-80Z"></path><circle cx="256" cy="48" r="8"></circle><circle cx="232" cy="48" r="8"></circle><circle cx="280" cy="48" r="8"></circle></svg>